<svg xmlns="http://www.w3.org/2000/svg" width="24.546" height="24.551"><path d="M2.254 14.481H.719A.719.719 0 000 15.2v8.631a.719.719 0 00.719.719h1.535a2.16 2.16 0 002.158-2.158v-5.754a2.16 2.16 0 00-2.158-2.157zm22.081 1.396a1.317 1.317 0 00-.331-.36 1.425 1.425 0 00-1.942.144l-3.268 3.769-.1.115a2.122 2.122 0 01-1.582.691h-5.581a.72.72 0 110-1.439h4.387a1.443 1.443 0 001.439-1.439v-.014a1.44 1.44 0 00-1.439-1.424h-2.6a1.98 1.98 0 01-1.266-.475 5.041 5.041 0 00-6.2-.331v8.845a16.6 16.6 0 004.373.59h6.416a5.042 5.042 0 004.028-2.014l3.452-4.6a1.905 1.905 0 00.214-2.058zM19.286 1.39a4.1 4.1 0 00-6.5.457 5.839 5.839 0 00-.182.271 5.839 5.839 0 00-.182-.271 4.1 4.1 0 00-6.5-.457 4.8 4.8 0 00-1.174 3.2A5.8 5.8 0 006.36 8.423a34.807 34.807 0 003.929 3.636c.589.5 1.2 1.011 1.845 1.572a.719.719 0 00.942 0c.647-.561 1.256-1.075 1.845-1.571 1.023-.864 1.907-1.61 2.674-2.333 1.489-1.4 2.867-3 2.867-5.136a4.8 4.8 0 00-1.176-3.201z"/></svg>