<svg xmlns="http://www.w3.org/2000/svg" width="24.096" height="24.096"><path d="M24.019 22.784a3.271 3.271 0 00-3.006-1.982h-1.246v.706a3.982 3.982 0 01-.954 2.588h4.341a.941.941 0 00.865-1.312zM17.038 13.9a7.7 7.7 0 00-3.613-2.891A6.292 6.292 0 019.6 6.724a2.529 2.529 0 01-1.294.35c-.082 0-.165 0-.248-.012a2.513 2.513 0 01-2.275-2.14l-.167-1.071a.706.706 0 011.395-.218L7.178 4.7a1.106 1.106 0 001.014.954c.039 0 .078.005.116.005a1.1 1.1 0 001.058-.749l.518-1.451A2.588 2.588 0 007.447 0H5.3a2.594 2.594 0 00-1.912.847L1.806 2.588H.718a.726.726 0 00-.309.065.707.707 0 00-.409.641v2.118a1.653 1.653 0 001.65 1.647 1.179 1.179 0 011.168 1.065l-.17.459a7.413 7.413 0 00.646 6.448v6.362a1.412 1.412 0 00-1.412 1.412v.585a.706.706 0 00.706.706h3.53V13.648a.706.706 0 111.412 0V24.1h.942v-1.416a2.12 2.12 0 012.118-2.118h.777a3.536 3.536 0 013.459-2.824.706.706 0 010 1.412 2.12 2.12 0 00-2.118 2.118.706.706 0 01-.706.706h-1.413a.707.707 0 00-.706.706V24.1h5.883a2.588 2.588 0 002.588-2.588v-3.223a7.85 7.85 0 00-1.316-4.389z"/></svg>