<svg xmlns="http://www.w3.org/2000/svg" width="26.25" height="24.62"><path d="M10.044 6.699a2.343 2.343 0 00.192-3.029A2.2 2.2 0 107.01 6.613a2.361 2.361 0 003.034.086zM12.815.074a2.18 2.18 0 00-1.506 2.964 2.184 2.184 0 004.235-1.059A2.185 2.185 0 0012.815.074zm8.278 2.965a2.2 2.2 0 10-4.234-1.062 2.184 2.184 0 004.234 1.062zm4.427.247a2.19 2.19 0 00-3.3.38 2.185 2.185 0 003.226 2.944 2.184 2.184 0 00.074-3.324zm-9.322 2.868c-3.658 0-7.263 2.37-6.9 5.841a3.836 3.836 0 005.82 2.824 2.085 2.085 0 012.154 0 3.888 3.888 0 005.871-2.823c.371-3.465-3.284-5.842-6.945-5.842zM2.752 23.31l.688-.344c.719-.358 1.586.012 2.953.484a16.758 16.758 0 005.682 1.171 14.249 14.249 0 006.45-1.655l3.439-1.72-.356-.711a2.49 2.49 0 00-3.181-1.031 16.871 16.871 0 01-6.475 1.414 9.533 9.533 0 01-3.9-.7l.663-1.388a10.192 10.192 0 005.43.322 9.2 9.2 0 00-9.334-3.267A18.169 18.169 0 000 17.807z"/></svg>