<svg xmlns="http://www.w3.org/2000/svg" width="33.208" height="37.785"><path d="M16.006 29.954h1.2c2.084 0 2.723.084 2.723-1.1a3.321 3.321 0 10-6.642 0c-.004 1.164.522 1.1 2.719 1.1zm0 0"/><path d="M.265 37.387a1.1 1.1 0 00.841.4h31a1.1 1.1 0 00.841-.4 1.035 1.035 0 00.243-.908l-4.428-24.427a1.094 1.094 0 00-1.088-.908h-3.321v4.428h1.107a1.107 1.107 0 010 2.214h-4.428a1.107 1.107 0 010-2.214h1.107v-4.428h-11.07v4.428h1.107a1.107 1.107 0 010 2.214H7.748a1.107 1.107 0 010-2.214h1.107v-4.428H5.534a1.094 1.094 0 00-1.085.908L.021 36.479a1.034 1.034 0 00.244.908zM22.8 23.764a1.107 1.107 0 11-1.107 1.107 1.1 1.1 0 011.107-1.107zM18.815 20a1.107 1.107 0 11-1.107 1.107A1.1 1.1 0 0118.818 20zm-4.428 0a1.107 1.107 0 11-1.107 1.107A1.1 1.1 0 0114.39 20zm2.214 3.321a5.537 5.537 0 015.535 5.535c0 2.754-1.884 3.321-4.428 3.321h-1.68c-2.731 0-4.959-.276-4.959-3.321a5.537 5.537 0 015.531-5.535zm-6.2.443A1.107 1.107 0 119.3 24.871a1.1 1.1 0 011.1-1.107zm0 0"/><path d="M11.069 7.749a5.535 5.535 0 1111.07 0v3.395h2.214V7.749a7.75 7.75 0 00-15.5 0v3.395h2.214zm0 0"/></svg>