<svg xmlns="http://www.w3.org/2000/svg" width="74.023" height="69.427"><defs><style>.cls-1{fill:#fff}</style></defs><g id="volunteer_icn" transform="translate(0 -15.895)"><path id="Path_1367" d="M131.833 79.864c2.228-2.05 2.459-5.722.54-8.541a6.216 6.216 0 10-9.1 8.3c2.578 2.092 6.26 2.31 8.56.241z" class="cls-1" transform="translate(-103.511 -45.088)"/><path id="Path_1368" d="M221.976 16.1a6.147 6.147 0 00-4.246 8.357c1.286 3.077 4.429 5.009 7.463 4.25a6.6 6.6 0 004.479-7.237 6.16 6.16 0 00-7.696-5.37z" class="cls-1" transform="translate(-185.838)"/><path id="Path_1369" d="M340.525 24.5a6.215 6.215 0 10-11.941-2.995 6.612 6.612 0 004.53 7.256c2.764.699 6.031-.956 7.411-4.261z" class="cls-1" transform="translate(-281.045 -.038)"/><path id="Path_1370" d="M435 70.273a6.176 6.176 0 00-9.306 1.072c-1.923 2.819-1.69 6.491.557 8.56 2.3 2.069 5.988 1.812 8.539-.258a6.16 6.16 0 00.21-9.374z" class="cls-1" transform="translate(-363.037 -45.113)"/><path id="Path_1371" d="M200.5 135.923c-10.315 0-20.482 6.682-19.448 16.471a10.818 10.818 0 0016.411 7.963 5.88 5.88 0 016.074 0 10.964 10.964 0 0016.556-7.961c1.031-9.758-9.276-16.473-19.593-16.473z" class="cls-1" transform="translate(-154.815 -102.674)"/><path id="Path_1372" d="M7.76 342.524l1.94-.97c2.027-1.01 4.473.034 8.326 1.364 4.346 1.5 9.579 3.3 16.021 3.3a40.182 40.182 0 0018.188-4.666l9.7-4.85-1-2c-1.619-3.181-5.676-4.281-8.971-2.908a47.574 47.574 0 01-18.26 3.988c-6.733 0-10.651-1.807-10.99-1.97l1.87-3.914c.092.04 5.733 2.512 15.311.907a25.945 25.945 0 00-26.32-9.211A51.235 51.235 0 000 327.006z" class="cls-1" transform="translate(0 -260.897)"/></g></svg>