<svg xmlns="http://www.w3.org/2000/svg" width="75.377" height="75.377"><defs><style>.cls-1{fill:#fff}</style></defs><g id="foster_icn"><g id="Group_839" transform="translate(58.85 65.072)"><path id="Path_1373" d="M416.027 448.2a10.232 10.232 0 00-9.4-6.2h-3.9v2.208a12.455 12.455 0 01-2.984 8.1h13.577a2.944 2.944 0 002.707-4.108z" class="cls-1" transform="translate(-399.741 -442)"/></g><path id="Path_1374" d="M53.3 43.494A24.093 24.093 0 0042 34.45a19.683 19.683 0 01-11.96-13.416 7.911 7.911 0 01-4.047 1.1c-.256 0-.518-.012-.776-.037a7.86 7.86 0 01-7.122-6.7l-.523-3.349a2.208 2.208 0 114.364-.682l.523 3.349a3.458 3.458 0 003.167 2.985c.121.011.243.017.363.017a3.446 3.446 0 003.31-2.355l1.621-4.538.006-.015A8.1 8.1 0 0023.3 0h-6.709A8.113 8.113 0 0010.6 2.65L5.648 8.1h-3.4a2.27 2.27 0 00-.967.2A2.212 2.212 0 000 10.306v6.624a5.172 5.172 0 005.162 5.153 3.688 3.688 0 013.655 3.33l-.531 1.436a23.188 23.188 0 002.02 20.17v19.9a4.417 4.417 0 00-4.417 4.417v1.83A2.208 2.208 0 008.1 75.377h11.04V42.694a2.208 2.208 0 114.417 0v32.683H26.5v-4.416a6.632 6.632 0 016.625-6.625h2.43a11.061 11.061 0 0110.82-8.836 2.208 2.208 0 010 4.417 6.632 6.632 0 00-6.625 6.625 2.208 2.208 0 01-2.208 2.208h-4.417a2.211 2.211 0 00-2.208 2.208v4.417h18.4a8.1 8.1 0 008.1-8.1V57.212A24.557 24.557 0 0053.3 43.494z" class="cls-1"/></g></svg>