<svg xmlns="http://www.w3.org/2000/svg" width="62.531" height="62.544"><defs><style>.cls-1{fill:#fff}</style></defs><g id="donate_icon" transform="translate(-.054)"><g id="Group_834" transform="translate(.054 36.891)"><g id="Group_833"><path id="Path_1364" d="M5.8 302H1.886a1.831 1.831 0 00-1.832 1.832v21.988a1.831 1.831 0 001.832 1.832H5.8a5.5 5.5 0 005.5-5.5V307.5a5.5 5.5 0 00-5.5-5.5z" class="cls-1" transform="translate(-.054 -302)"/></g></g><g id="Group_836" transform="translate(14.957 36.189)"><g id="Group_835"><path id="Path_1365" d="M169.147 300.5a3.355 3.355 0 00-.843-.916 3.631 3.631 0 00-4.947.367l-8.319 9.6-.257.293a5.407 5.407 0 01-4.031 1.759h-14.218a1.832 1.832 0 110-3.665h11.177a3.675 3.675 0 003.665-3.665v-.037a3.668 3.668 0 00-3.665-3.628h-6.633a5.044 5.044 0 01-3.225-1.209 12.843 12.843 0 00-15.795-.843V321.1a42.3 42.3 0 0011.141 1.5h16.345a12.844 12.844 0 0010.261-5.131l8.8-11.727a4.853 4.853 0 00.544-5.242z" class="cls-1" transform="translate(-122.056 -296.246)"/></g></g><g id="Group_838" transform="translate(12.148)"><g id="Group_837"><path id="Path_1366" d="M136.093 3.542a10.438 10.438 0 00-16.56 1.164c-.165.231-.32.462-.464.69-.145-.229-.3-.459-.464-.69a10.438 10.438 0 00-16.56-1.164 12.216 12.216 0 00-2.991 8.158c0 3.362 1.3 6.465 4.106 9.765a88.673 88.673 0 0010.009 9.264c1.5 1.266 3.051 2.575 4.7 4a1.832 1.832 0 002.4 0c1.648-1.428 3.2-2.738 4.7-4 2.607-2.2 4.859-4.1 6.812-5.944 3.793-3.579 7.3-7.641 7.3-13.085a12.216 12.216 0 00-2.988-8.158z" class="cls-1" transform="translate(-99.054)"/></g></g></g></svg>