<svg xmlns="http://www.w3.org/2000/svg" width="80" height="73.226"><defs><style>.cls-1{fill:#fff}.cls-2{fill:#6d9f0f}</style></defs><g id="events" transform="translate(14634.323 7395.021)"><g id="appointment_1_" transform="translate(-14634.323 -7388.069)"><g id="Group_854" transform="translate(0 15.21)"><path id="Path_1431" d="M118.667 199.087H58.011a9.673 9.673 0 01-9.672-9.672v-41.392h80v41.392a9.672 9.672 0 01-9.672 9.672z" class="cls-1" transform="translate(-48.339 -148.023)"/></g><g id="Group_855" transform="translate(31.222 37.097)"><path id="Path_1433" d="M136.921 207.523a3.99 3.99 0 00-3.637-4.056 3.844 3.844 0 00-4.05 3.838v.217a4.19 4.19 0 01-1.838 3.4 3.987 3.987 0 00-1.64 3.881 4.031 4.031 0 003.132 3.309 4.078 4.078 0 002.054-.1 6.978 6.978 0 014.271 0 4.073 4.073 0 002.054.1 4.032 4.032 0 003.133-3.312 3.988 3.988 0 00-1.64-3.881 4.189 4.189 0 01-1.839-3.396z" class="cls-2" transform="translate(-124.007 -201.758)"/><path id="Path_1434" d="M127.426 217.6a5.985 5.985 0 01-1.174-.117 5.771 5.771 0 01-4.478-4.725 5.7 5.7 0 012.34-5.523 2.484 2.484 0 001.119-2.012V205a5.566 5.566 0 011.729-4.022 5.469 5.469 0 014.112-1.516 5.659 5.659 0 015.251 5.755 2.482 2.482 0 001.119 2.011 5.7 5.7 0 012.34 5.523 5.77 5.77 0 01-4.478 4.724 5.837 5.837 0 01-2.907-.148 5.247 5.247 0 00-3.24 0 5.728 5.728 0 01-1.733.273zm3.354-14.735a2.142 2.142 0 00-2.142 2.135v.218a5.923 5.923 0 01-2.555 4.788 2.276 2.276 0 00-.941 2.239 2.34 2.34 0 001.785 1.895 2.374 2.374 0 001.2-.057 8.718 8.718 0 015.3 0 2.311 2.311 0 002.987-1.838 2.278 2.278 0 00-.941-2.24 5.92 5.92 0 01-2.555-4.787 2.29 2.29 0 00-2.025-2.356h-.116z" class="cls-2" transform="translate(-121.71 -199.456)"/></g><g id="Group_856" transform="translate(48.295 35.936)"><circle id="Ellipse_14" cx="3.558" cy="3.558" r="3.558" class="cls-2" transform="translate(1.702 1.702)"/><path id="Path_1435" d="M167.09 207.249a5.26 5.26 0 115.261-5.26 5.265 5.265 0 01-5.261 5.26zm0-7.116a1.856 1.856 0 101.857 1.856 1.858 1.858 0 00-1.857-1.856z" class="cls-2" transform="translate(-161.831 -196.729)"/></g><g id="Group_857" transform="translate(41.662 25.989)"><circle id="Ellipse_15" cx="3.558" cy="3.558" r="3.558" class="cls-2" transform="translate(1.703 1.702)"/><path id="Path_1436" d="M151.506 183.873a5.26 5.26 0 115.261-5.26 5.267 5.267 0 01-5.261 5.26zm0-7.117a1.856 1.856 0 101.857 1.857 1.859 1.859 0 00-1.857-1.857z" class="cls-2" transform="translate(-146.245 -173.352)"/></g><g id="Group_858" transform="translate(30.058 25.989)"><circle id="Ellipse_16" cx="3.558" cy="3.558" r="3.558" class="cls-2" transform="translate(1.702 1.702)"/><path id="Path_1437" d="M124.235 183.873a5.26 5.26 0 115.261-5.26 5.265 5.265 0 01-5.261 5.26zm0-7.117a1.856 1.856 0 101.857 1.857 1.858 1.858 0 00-1.857-1.857z" class="cls-2" transform="translate(-118.976 -173.352)"/></g><g id="Group_859" transform="translate(21.769 35.936)"><circle id="Ellipse_17" cx="3.558" cy="3.558" r="3.558" class="cls-2" transform="translate(1.702 1.702)"/><path id="Path_1438" d="M104.756 207.249a5.26 5.26 0 115.259-5.26 5.267 5.267 0 01-5.259 5.26zm0-7.116a1.856 1.856 0 101.855 1.856 1.858 1.858 0 00-1.855-1.856z" class="cls-2" transform="translate(-99.495 -196.729)"/></g><g id="Group_860" transform="translate(11.915)"><path id="Path_1439" d="M83.743 94.3a3.4 3.4 0 01-3.4-3.4V80.683a3.4 3.4 0 016.809 0V90.9a3.4 3.4 0 01-3.409 3.4z" class="cls-1" transform="translate(-78.637 -75.577)"/><path id="Path_1440" d="M81.445 93.7a5.112 5.112 0 01-5.106-5.1V78.385a5.106 5.106 0 0110.213 0V88.6a5.112 5.112 0 01-5.107 5.1zm0-17.021a1.7 1.7 0 00-1.7 1.7V88.6a1.7 1.7 0 103.4 0V78.385a1.7 1.7 0 00-1.7-1.702z" class="cls-1" transform="translate(-76.339 -73.279)"/></g><g id="Group_861" transform="translate(57.873)"><path id="Path_1441" d="M191.743 94.3a3.4 3.4 0 01-3.4-3.4V80.683a3.4 3.4 0 116.809 0V90.9a3.4 3.4 0 01-3.409 3.4z" class="cls-1" transform="translate(-186.637 -75.577)"/><path id="Path_1442" d="M189.445 93.7a5.112 5.112 0 01-5.106-5.106V78.385a5.106 5.106 0 0110.213 0V88.6a5.112 5.112 0 01-5.107 5.1zm0-17.021a1.7 1.7 0 00-1.7 1.7V88.6a1.7 1.7 0 003.4 0V78.385a1.7 1.7 0 00-1.7-1.702z" class="cls-1" transform="translate(-184.339 -73.279)"/></g></g><path id="Rectangle_7708" d="M0 0h79.589v9.949H0z" class="cls-1" transform="translate(-14634.094 -7395.021)"/></g></svg>