<svg xmlns="http://www.w3.org/2000/svg" id="employment" width="68.896" height="75.377"><defs><style>.cls-1{fill:#fff}</style></defs><path id="Path_1390" d="M357.482 178.775s-6.5.78-5.316 14.863c1.263 15.066 6.859 14.526 7.615 14.549.874.026 5.795-.268 7.544-3.215 1.231-2.074 2.7-14.078-1.757-20.841-3.546-5.381-6.875-5.831-8.086-5.356z" class="cls-1" transform="translate(-352.022 -160.319)"/><path id="Path_1391" d="M402.277 138.935a6.427 6.427 0 00-9.857 1.987 11.341 11.341 0 00-.916 2.7c-1.264 5.933-1.372 19.392 2.279 23.8a7.332 7.332 0 009.068 1.91c.732-.311 6.134-2.313 5.682-12.944-.348-8.178-2.633-14.463-6.256-17.453z" class="cls-1" transform="translate(-373.512 -137.434)"/><path id="Path_1392" d="M446.69 144.494a4.032 4.032 0 00-3.89.225c-2.666 1.666-7.432 6.223-8.277 17.762-.844 11.5 6.094 11.18 10.178 10.032a6.214 6.214 0 003.976-3.459c1.234-2.761 3.036-7.266 2.972-9.917-.086-3.609.432-12.037-4.959-14.643z" class="cls-1" transform="translate(-397.811 -141.136)"/><path id="Path_1393" d="M479.879 185.392s-7.283 1.5-7.887 11.269.082 13.54 2.724 15.233c1.654 1.059 7.483 1.486 9.489-2.841 1.908-4.116 3.706-9.808 3.133-14.377-.701-5.597-4.208-10.032-7.459-9.284z" class="cls-1" transform="translate(-418.551 -164.028)"/><g id="Group_842" transform="translate(4.317 33.065)"><path id="Path_1398" d="M413.657 230.075c-6.876-4.194-5.244-7.569-9.957-13.789-4.14-5.463-7.8-4.139-13.677-4.456s-10.828 6.768-11.274 7.522c-2.07 3.5-1.232 5.247-7.963 8.352a17.156 17.156 0 00-8.848 9.363c-1.047 6.653 2.134 10.884 4.9 12.906 2.332 1.707 9.363 1.513 15.247 1.053a8.584 8.584 0 01-1.437-1.441q-3.458-4.4-3.215-11.8a26.772 26.772 0 013.761-13.467q4.216-6.854 11.4-6.855 7.492 0 10.828 3.791 2.7 3.094 4.277 11.161a31.29 31.29 0 01.606 5.945 16.651 16.651 0 01-2.911 10.009 12.93 12.93 0 01-3.938 3.631 93.682 93.682 0 0011.388 2.106c5.505.461 9.313-4.405 9.839-10.54.451-5.266-1.935-9.166-9.026-13.491z" class="cls-1" transform="translate(-361.734 -211.82)"/><path id="Path_1399" d="M423.136 246.628q-2.547 0-4.7 3.4a11.155 11.155 0 00-1.942 5.972 10.645 10.645 0 001.759 5.611q1.971 3.215 4.55 3.215 2.7 0 5.247-3.276a9.8 9.8 0 002.4-5.915 10.74 10.74 0 00-2.851-6.764q-2.37-2.243-4.463-2.243z" class="cls-1" transform="translate(-392.153 -231.156)"/></g></svg>