<svg xmlns="http://www.w3.org/2000/svg" width="24.546" height="24.551" viewBox="0 0 24.546 24.551">
    <g>
        <g>
            <g>
                <path d="M2.308 302H.773a.719.719 0 0 0-.719.719v8.631a.719.719 0 0 0 .719.719h1.535a2.16 2.16 0 0 0 2.158-2.158v-5.754A2.16 2.16 0 0 0 2.308 302z" transform="translate(-.054) translate(.054 14.481) translate(-.054 -302)"/>
            </g>
        </g>
        <g>
            <g>
                <path d="M140.541 297.918a1.317 1.317 0 0 0-.331-.36 1.425 1.425 0 0 0-1.942.144L135 301.471l-.1.115a2.122 2.122 0 0 1-1.582.691h-5.581a.719.719 0 1 1 0-1.439h4.387a1.443 1.443 0 0 0 1.439-1.439v-.014a1.44 1.44 0 0 0-1.439-1.424h-2.6a1.98 1.98 0 0 1-1.266-.475 5.041 5.041 0 0 0-6.2-.331V306a16.6 16.6 0 0 0 4.373.59h6.416a5.042 5.042 0 0 0 4.028-2.014l3.452-4.6a1.905 1.905 0 0 0 .214-2.058z" transform="translate(-.054) translate(5.904 14.205) translate(-122.056 -296.246)"/>
            </g>
        </g>
        <g>
            <g>
                <path d="M113.593 1.39a4.1 4.1 0 0 0-6.5.457c-.065.091-.125.181-.182.271-.057-.09-.117-.18-.182-.271a4.1 4.1 0 0 0-6.5-.457 4.8 4.8 0 0 0-1.174 3.2 5.8 5.8 0 0 0 1.612 3.833 34.807 34.807 0 0 0 3.929 3.636c.589.5 1.2 1.011 1.845 1.572a.719.719 0 0 0 .942 0c.647-.561 1.256-1.075 1.845-1.571 1.023-.864 1.907-1.61 2.674-2.333 1.489-1.4 2.867-3 2.867-5.136a4.8 4.8 0 0 0-1.176-3.201z" transform="translate(-.054) translate(4.801) translate(-99.054)"/>
            </g>
        </g>
    </g>
</svg>
