<svg xmlns="http://www.w3.org/2000/svg" width="23.716" height="23.716" viewBox="0 0 23.716 23.716">
    <defs>
        <style>
            .cls-1{fill:#060706}
        </style>
    </defs>
    <g id="adopt_icn">
        <path id="Path_4016" d="M332.284 320.205a.794.794 0 1 0-.794-.794.795.795 0 0 0 .794.794z" class="cls-1" transform="translate(-316.136 -303.859)"/>
        <path id="Path_4017" d="M272.166 263.165A1.166 1.166 0 1 0 271 262a1.167 1.167 0 0 0 1.166 1.165z" class="cls-1" transform="translate(-258.448 -248.751)"/>
        <path id="Path_4018" d="M193 262a1.166 1.166 0 1 0-1.166 1.166A1.167 1.167 0 0 0 193 262z" class="cls-1" transform="translate(-181.836 -248.751)"/>
        <path id="Path_4019" d="M147.036 318.617a.794.794 0 1 0 .794.794.795.795 0 0 0-.794-.794z" class="cls-1" transform="translate(-139.468 -303.858)"/>
        <path id="Path_4020" d="M48.2 88.265v9.753a.7.7 0 0 0 .695.695h17.861a.7.7 0 0 0 .695-.695v-9.753l-9.626-9.625zm11.486-2.575a2.558 2.558 0 0 1 2.555 2.555v.125a2.183 2.183 0 1 1-.743 4.273v.068a3.672 3.672 0 0 1-7.343 0v-.068a2.183 2.183 0 1 1-.743-4.273v-.125a2.554 2.554 0 0 1 4.413-1.745 2.549 2.549 0 0 1 1.861-.81z" class="cls-1" transform="translate(-45.968 -74.997)"/>
        <circle id="Ellipse_95" cx="2.282" cy="2.282" r="2.282" class="cls-1" transform="translate(9.576 15.431)"/>
        <path id="Path_4021" d="M373.9.695a.7.7 0 0 0-.7-.695h-2.977a.7.7 0 0 0-.695.695v2.311l4.372 4.366z" class="cls-1" transform="translate(-352.416)"/>
        <path id="Path_4022" d="M23.512 11.367L12.349.2a.7.7 0 0 0-.983 0L.2 11.367a.695.695 0 0 0 .983.983L11.858 1.678 22.53 12.35a.695.695 0 0 0 .983-.983z" class="cls-1"/>
    </g>
</svg>
