<svg xmlns="http://www.w3.org/2000/svg" width="26.25" height="24.62" viewBox="0 0 26.25 24.62">
    <g>
        <path d="M124.845 72.6a2.343 2.343 0 0 0 .192-3.029 2.2 2.2 0 1 0-3.226 2.943 2.361 2.361 0 0 0 3.034.086z" transform="translate(0 -15.895) translate(-114.801 -50.006)"/>
        <path d="M218.924 15.969a2.18 2.18 0 0 0-1.506 2.964 2.184 2.184 0 0 0 4.235-1.059 2.185 2.185 0 0 0-2.729-1.905z" transform="translate(0 -15.895) translate(-206.109)"/>
        <path d="M332.794 18.976a2.2 2.2 0 1 0-4.234-1.062 2.184 2.184 0 0 0 4.234 1.062z" transform="translate(0 -15.895) translate(-311.701 -.042)"/>
        <path d="M428.156 69.214a2.19 2.19 0 0 0-3.3.38 2.185 2.185 0 0 0 3.226 2.944 2.184 2.184 0 0 0 .074-3.324z" transform="translate(0 -15.895) translate(-402.636 -50.033)"/>
        <path d="M187.9 135.923c-3.658 0-7.263 2.37-6.9 5.841a3.836 3.836 0 0 0 5.82 2.824 2.085 2.085 0 0 1 2.154 0 3.888 3.888 0 0 0 5.871-2.823c.371-3.465-3.284-5.842-6.945-5.842z" transform="translate(0 -15.895) translate(-171.702 -113.874)"/>
        <path d="M2.752 328.56l.688-.344c.719-.358 1.586.012 2.953.484a16.758 16.758 0 0 0 5.682 1.171 14.249 14.249 0 0 0 6.45-1.655l3.439-1.72-.356-.711a2.49 2.49 0 0 0-3.181-1.031 16.871 16.871 0 0 1-6.475 1.414 9.533 9.533 0 0 1-3.9-.7l.663-1.388a10.192 10.192 0 0 0 5.43.322 9.2 9.2 0 0 0-9.334-3.267A18.169 18.169 0 0 0 0 323.057z" transform="translate(0 -15.895) translate(0 -289.355)"/>
    </g>
</svg>
