<svg xmlns="http://www.w3.org/2000/svg" width="24.096" height="24.096" viewBox="0 0 24.096 24.096">
    <g>
        <g>
            <path d="M404.947 443.982a3.271 3.271 0 0 0-3.006-1.982h-1.246v.706a3.982 3.982 0 0 1-.954 2.588h4.341a.941.941 0 0 0 .865-1.312z" transform="translate(18.813 20.802) translate(-399.741 -442)"/>
        </g>
        <path d="M17.038 13.9a7.7 7.7 0 0 0-3.613-2.891A6.292 6.292 0 0 1 9.6 6.724a2.529 2.529 0 0 1-1.294.35c-.082 0-.165 0-.248-.012a2.513 2.513 0 0 1-2.275-2.14l-.167-1.071a.706.706 0 0 1 1.395-.218L7.178 4.7a1.106 1.106 0 0 0 1.014.954c.039 0 .078.005.116.005a1.1 1.1 0 0 0 1.058-.749l.518-1.451A2.588 2.588 0 0 0 7.447 0H5.3a2.594 2.594 0 0 0-1.912.847L1.806 2.588H.718a.726.726 0 0 0-.309.065.707.707 0 0 0-.409.641v2.118a1.653 1.653 0 0 0 1.65 1.647 1.179 1.179 0 0 1 1.168 1.065l-.17.459a7.413 7.413 0 0 0 .646 6.448v6.362a1.412 1.412 0 0 0-1.412 1.412v.585a.706.706 0 0 0 .706.706h3.53V13.648a.706.706 0 1 1 1.412 0V24.1h.942v-1.416a2.12 2.12 0 0 1 2.118-2.118h.777a3.536 3.536 0 0 1 3.459-2.824.706.706 0 0 1 0 1.412 2.12 2.12 0 0 0-2.118 2.118.706.706 0 0 1-.706.706h-1.413a.707.707 0 0 0-.706.706V24.1h5.883a2.588 2.588 0 0 0 2.588-2.588v-3.223a7.85 7.85 0 0 0-1.316-4.389z"/>
    </g>
</svg>
