<svg xmlns="http://www.w3.org/2000/svg" width="33.208" height="37.785" viewBox="0 0 33.208 37.785">
    <g>
        <path d="M182.715 350.42h1.2c2.084 0 2.723.084 2.723-1.1a3.321 3.321 0 1 0-6.642 0c-.004 1.164.522 1.1 2.719 1.1zm0 0" transform="translate(-166.709 -320.466)"/>
        <path d="M.265 177.243a1.1 1.1 0 0 0 .841.4h31a1.1 1.1 0 0 0 .841-.4 1.035 1.035 0 0 0 .243-.908l-4.428-24.427a1.094 1.094 0 0 0-1.088-.908h-3.321v4.428h1.107a1.107 1.107 0 0 1 0 2.214h-4.428a1.107 1.107 0 0 1 0-2.214h1.107V151h-11.07v4.428h1.107a1.107 1.107 0 0 1 0 2.214H7.748a1.107 1.107 0 0 1 0-2.214h1.107V151H5.534a1.094 1.094 0 0 0-1.085.908L.021 176.335a1.034 1.034 0 0 0 .244.908zM22.8 163.62a1.107 1.107 0 1 1-1.107 1.107 1.1 1.1 0 0 1 1.107-1.107zm-3.985-3.764a1.107 1.107 0 1 1-1.107 1.107 1.1 1.1 0 0 1 1.11-1.107zm-4.428 0a1.107 1.107 0 1 1-1.107 1.107 1.1 1.1 0 0 1 1.11-1.107zm2.214 3.321a5.537 5.537 0 0 1 5.535 5.535c0 2.754-1.884 3.321-4.428 3.321h-1.68c-2.731 0-4.959-.276-4.959-3.321a5.537 5.537 0 0 1 5.531-5.535zm-6.2.443a1.107 1.107 0 1 1-1.101 1.107 1.1 1.1 0 0 1 1.1-1.107zm0 0" transform="translate(0 -139.856)"/>
        <path d="M122.206 7.749a5.535 5.535 0 1 1 11.07 0v3.395h2.214V7.749a7.749 7.749 0 0 0-15.5 0v3.395h2.214zm0 0" transform="translate(-111.137)"/>
    </g>
</svg>
