<svg xmlns="http://www.w3.org/2000/svg" width="22.333" height="22.334"><path fill="#348f41" d="M7.445 11.167a3.722 3.722 0 113.722 3.723 3.722 3.722 0 01-3.722-3.723zm-2.012 0a5.734 5.734 0 105.734-5.734 5.734 5.734 0 00-5.735 5.734zm10.355-5.961a1.34 1.34 0 101.341-1.34 1.341 1.341 0 00-1.34 1.34zM6.655 20.257a6.172 6.172 0 01-2.074-.384 3.7 3.7 0 01-2.12-2.119 6.167 6.167 0 01-.384-2.074c-.054-1.177-.065-1.531-.065-4.513s.012-3.335.065-4.513a6.212 6.212 0 01.384-2.074 3.7 3.7 0 012.12-2.12 6.167 6.167 0 012.074-.384c1.177-.054 1.531-.065 4.511-.065s3.335.012 4.513.065a6.213 6.213 0 012.074.384 3.7 3.7 0 012.12 2.12 6.167 6.167 0 01.384 2.074c.054 1.178.065 1.531.065 4.513s-.011 3.335-.065 4.513a6.2 6.2 0 01-.384 2.074 3.7 3.7 0 01-2.12 2.119 6.163 6.163 0 01-2.074.384c-1.177.054-1.531.065-4.513.065s-3.334-.011-4.511-.065zM6.563.068a8.188 8.188 0 00-2.711.519A5.709 5.709 0 00.586 3.853a8.191 8.191 0 00-.519 2.711c-.055 1.19-.068 1.57-.068 4.603s.013 3.413.068 4.6a8.19 8.19 0 00.519 2.711 5.709 5.709 0 003.266 3.266 8.2 8.2 0 002.711.519c1.191.054 1.571.068 4.6.068s3.413-.013 4.6-.068a8.191 8.191 0 002.711-.519 5.709 5.709 0 003.266-3.266 8.169 8.169 0 00.519-2.711c.054-1.192.067-1.571.067-4.6s-.013-3.413-.067-4.6a8.189 8.189 0 00-.519-2.711A5.711 5.711 0 0018.475.59a8.178 8.178 0 00-2.711-.519C14.581.013 14.199 0 11.167 0S7.754.013 6.563.068z"/></svg>