<svg xmlns="http://www.w3.org/2000/svg" width="23.845" height="23.887" viewBox="0 0 23.845 23.887">
    <path fill="none" stroke="#fff" stroke-linecap="round" stroke-linejoin="round" stroke-width="3px" d="M24.011 18.636v3.144a2.1 2.1 0 0 1-2.285 2.1 20.74 20.74 0 0 1-9.044-3.217 20.436 20.436 0 0 1-6.288-6.288 20.74 20.74 0 0 1-3.218-9.09A2.1 2.1 0 0 1 5.262 3h3.144a2.1 2.1 0 0 1 2.1 1.8 13.456 13.456 0 0 0 .734 2.945 2.1 2.1 0 0 1-.472 2.211L9.433 11.29a16.768 16.768 0 0 0 6.288 6.288l1.331-1.331a2.1 2.1 0 0 1 2.211-.472 13.456 13.456 0 0 0 2.945.734 2.1 2.1 0 0 1 1.803 2.127z" transform="translate(-1.667 -1.5)"/>
</svg>
