<svg xmlns="http://www.w3.org/2000/svg" width="34.981" height="26.236" viewBox="0 0 34.981 26.236">
    <defs>
        <style>
            .cls-2{fill:#9fcb4d}
        </style>
    </defs>
    <g id="email_list_icn" transform="translate(-286.418 -2786.063)">
        <g id="envelope" transform="translate(286.418 2786.063)">
            <g id="Group_849">
                <g id="Group_848">
                    <path id="Path_1418" d="M7.172 66.129c4.8 4.066 13.225 11.219 15.7 13.45a1.463 1.463 0 0 0 2.116 0c2.478-2.233 10.9-9.387 15.7-13.453a.728.728 0 0 0 .1-1.006 2.894 2.894 0 0 0-2.28-1.12H9.356a2.894 2.894 0 0 0-2.287 1.123.728.728 0 0 0 .103 1.006z" transform="translate(-6.441 -64)"/>
                    <path id="Path_1419" d="M349.786 126.48a.725.725 0 0 0-.777.105c-3.144 2.665-7.287 6.187-10.411 8.874a.728.728 0 0 0 .02 1.121c2.9 2.325 7.278 5.524 10.437 7.8a.729.729 0 0 0 1.154-.591v-16.648a.728.728 0 0 0-.423-.661z" transform="translate(-315.227 -122.147)"/>
                    <path id="Path_1420" d="M1.154 144.385c3.16-2.273 7.535-5.472 10.438-7.8a.728.728 0 0 0 .02-1.121c-3.124-2.687-7.268-6.209-10.412-8.874a.729.729 0 0 0-1.2.556v16.645a.729.729 0 0 0 1.154.591z" transform="translate(0 -122.156)"/>
                    <path id="Path_1421" d="M42.123 293.754c-3.051-2.183-8.671-6.252-12.026-8.975a.73.73 0 0 0-.938.016c-.658.574-1.209 1.058-1.6 1.41a2.951 2.951 0 0 1-4.068 0c-.389-.351-.94-.836-1.6-1.408a.726.726 0 0 0-.937-.016c-3.344 2.714-8.97 6.788-12.026 8.975a.729.729 0 0 0-.11 1.089 2.92 2.92 0 0 0 2.131.935H40.1a2.924 2.924 0 0 0 2.132-.935.729.729 0 0 0-.11-1.089z" transform="translate(-8.034 -269.543)"/>
                </g>
            </g>
        </g>
        <circle id="Ellipse_10" cx="8" cy="8" r="8" fill="#060706" transform="translate(296 2788)"/>
        <g id="pets-circular-sign" transform="translate(298.29 2790.063)">
            <g id="Group_847">
                <path id="Path_1411" d="M11.1 5.549A5.549 5.549 0 1 0 5.549 11.1 5.555 5.555 0 0 0 11.1 5.549zm-5.551 4.944a4.943 4.943 0 1 1 4.943-4.943 4.949 4.949 0 0 1-4.943 4.943z" class="cls-2"/>
                <path id="Path_1412" d="M28.92 24.4a4.518 4.518 0 1 0 4.518 4.518A4.523 4.523 0 0 0 28.92 24.4zm0 8.43a3.912 3.912 0 1 1 3.912-3.912 3.917 3.917 0 0 1-3.912 3.909z" class="cls-2" transform="translate(-23.371 -23.366)"/>
                <path id="Path_1413" d="M69.783 117.4a4.149 4.149 0 0 0-.188-.555.725.725 0 0 0-.818-.406 1.715 1.715 0 0 0-.482.212c-.173.1-.344.2-.521.292-.34.172-.684.335-1.026.5a.944.944 0 0 0-.339.267 1.423 1.423 0 0 0-.305.748.722.722 0 0 0 .3.7 1.04 1.04 0 0 0 .394.166 3.329 3.329 0 0 0 .987.046.607.607 0 0 1 .372.06 1.754 1.754 0 0 1 .207.134c.171.134.337.273.506.409a.934.934 0 0 0 .563.225 2 2 0 0 0 .215-.041.963.963 0 0 0 .567-.479 1.087 1.087 0 0 0 .024-1.124 5.476 5.476 0 0 1-.456-1.154z" class="cls-2" transform="translate(-63.306 -111.503)"/>
                <path id="Path_1414" d="M171.751 120.229a.708.708 0 0 0-.324-.466.611.611 0 0 0-.675.037 1.255 1.255 0 0 0-.553 1.051c.008.067.013.142.027.216a.877.877 0 0 0 .051.171.624.624 0 0 0 .483.414.686.686 0 0 0 .527-.144 1.269 1.269 0 0 0 .464-1.279z" class="cls-2" transform="translate(-163.007 -114.621)"/>
                <path id="Path_1415" d="M109.669 58.7a.637.637 0 0 0 .647-.075 1.264 1.264 0 0 0 .5-1.3.712.712 0 0 0-.33-.467.608.608 0 0 0-.657.034 1.266 1.266 0 0 0-.566 1.074 2.538 2.538 0 0 0 .049.278.669.669 0 0 0 .357.456z" class="cls-2" transform="translate(-104.642 -54.371)"/>
                <path id="Path_1416" d="M152.134 74.6c-.009-.058-.017-.154-.04-.247a.715.715 0 0 0-.276-.427.628.628 0 0 0-.72.01 1.174 1.174 0 0 0-.5.713 1.088 1.088 0 0 0 .05.774.6.6 0 0 0 .635.367.789.789 0 0 0 .452-.227 1.324 1.324 0 0 0 .399-.963z" class="cls-2" transform="translate(-144.188 -70.698)"/>
                <path id="Path_1417" d="M67.134 83.054a1.261 1.261 0 0 0 .488-1.348.67.67 0 0 0-.389-.46.641.641 0 0 0-.644.105 1.291 1.291 0 0 0-.508 1.05 2.462 2.462 0 0 0 .056.291.631.631 0 0 0 .997.362z" class="cls-2" transform="translate(-63.289 -77.77)"/>
            </g>
        </g>
    </g>
</svg>
