<svg xmlns="http://www.w3.org/2000/svg" width="250" height="120" viewBox="0 0 250 120">
    <defs>
        <style>
            .cls-2{fill:#060706}
        </style>
    </defs>
    <g id="logo" transform="translate(-835 -16)">
        <path id="Path_1363" fill="#fff" d="M250 78c0 43.078-55.964 78-125 78S0 121.078 0 78s250-43.078 250 0z" transform="translate(835 -20)"/>
        <g id="Group_846" transform="translate(726.966 -121.434)">
            <g id="Group_840" transform="translate(169.155 225.381)">
                <path id="Path_1375" d="M189.4 437.7a.382.382 0 0 1-.3.137.638.638 0 0 1-.561-.364 3.884 3.884 0 0 1-1.76.577 1.272 1.272 0 0 1-1.29-1.335 2.607 2.607 0 0 1 2.124-2.473 1.4 1.4 0 0 1 1.214.9 4.39 4.39 0 0 0 .061-.683c0-.607-.258-2.063-1.168-2.063a1.12 1.12 0 0 0-.834.349.312.312 0 0 1-.349.258.6.6 0 0 1-.622-.561c0-.683 1.032-1.169 1.927-1.169 1.578 0 2.246 1.73 2.246 3.156a8.952 8.952 0 0 1-.688 3.271zm-1.805-2.276a1.4 1.4 0 0 0-1.017 1.259c0 .212.106.288.273.288a3.21 3.21 0 0 0 1.35-.652c-.101-.291-.375-.898-.601-.898z" class="cls-2" transform="translate(-185.489 -430.049)"/>
                <path id="Path_1376" d="M233.624 436.729a.558.558 0 0 1-.531-.3 2.8 2.8 0 0 1-.152-1.169c0-.85.091-1.927.091-2.716 0-.516-.046-1.108-.228-1.108-.379 0-2.079 4.689-2.215 5.159-.152.592-.349.819-.592.819-.743 0-.743-.91-.759-1.229-.015-.819-.015-3.535-.152-4.218-.015-.091-.046-.137-.106-.152-.137 0-.319.516-.622 1.183a10.183 10.183 0 0 0-.941 3.414c0 .152.03.288.03.486 0 .349-.395.486-.713.486-.577 0-.668-.273-.668-.85 0-.956.258-2.67.258-3.778 0-.273-.046-.546-.046-.865 0-.41.2-.728.637-.728a.749.749 0 0 1 .743.622c.364-.652 1.032-1.669 1.426-1.669a1.238 1.238 0 0 1 .9.622 9.993 9.993 0 0 1 .364 2.9c.607-1.214 1.745-3.505 2.625-3.505.486 0 1.017.683 1.108 1.016a14.315 14.315 0 0 1 .137 2.473c0 .607-.03 1.229-.03 1.866 0 .212.137.44.137.683-.003.392-.352.558-.701.558z" class="cls-2" transform="translate(-213.755 -429.249)"/>
                <path id="Path_1377" d="M260.043 438.421c-1.138 0-1.775-1.335-1.775-2.413a3.172 3.172 0 0 1 .258-1.259c.819-1.836 1.684-2.625 2.579-2.686h.076a2.51 2.51 0 0 1 2.215 2.716 3.764 3.764 0 0 1-3.353 3.642zm1.441-5.1c-.941 0-2 1.806-2 2.67 0 .379.182 1.229.759 1.229a2.386 2.386 0 0 0 1.608-1.168 3.1 3.1 0 0 0 .395-1.4c-.003-.419-.185-1.329-.761-1.329z" class="cls-2" transform="translate(-236.184 -430.606)"/>
                <path id="Path_1378" d="M288.723 436.729a.558.558 0 0 1-.531-.3 2.794 2.794 0 0 1-.152-1.169c0-.85.091-1.927.091-2.716 0-.516-.046-1.108-.228-1.108-.379 0-2.079 4.689-2.215 5.159-.152.592-.349.819-.592.819-.743 0-.743-.91-.759-1.229-.015-.819-.015-3.535-.152-4.218-.015-.091-.046-.137-.106-.152-.137 0-.319.516-.622 1.183a10.183 10.183 0 0 0-.941 3.414c0 .152.03.288.03.486 0 .349-.395.486-.713.486-.577 0-.668-.273-.668-.85 0-.956.258-2.67.258-3.778 0-.273-.046-.546-.046-.865 0-.41.2-.728.637-.728a.749.749 0 0 1 .743.622c.364-.652 1.032-1.669 1.427-1.669a1.238 1.238 0 0 1 .9.622 9.993 9.993 0 0 1 .364 2.9c.607-1.214 1.745-3.505 2.625-3.505.486 0 1.017.683 1.108 1.016a14.319 14.319 0 0 1 .137 2.473c0 .607-.03 1.229-.03 1.866 0 .212.137.44.137.683-.004.392-.353.558-.702.558z" class="cls-2" transform="translate(-252.134 -429.249)"/>
                <path id="Path_1379" d="M331.522 431.221c-.212-.015-.243-.015-.288-.015a30.617 30.617 0 0 0-4.052 1.077c.015 1.183.031 2.352.031 2.534 0 .228-.061.8-.531.8-.531 0-.729-.334-.729-.8v-.394c0-.41-.015-1.062-.046-1.73a18.761 18.761 0 0 0-1.927.728.407.407 0 0 1-.2.061.658.658 0 0 1-.607-.637.681.681 0 0 1 .076-.289 13.486 13.486 0 0 1 2.595-1.077v-1.517c0-.47.03-1.2.683-1.2.455 0 .607.455.607.941v1.4a21.268 21.268 0 0 1 4.6-1.032c.258 0 .471.3.471.607 0 .285-.182.543-.683.543z" class="cls-2" transform="translate(-281.396 -428.308)"/>
                <path id="Path_1380" d="M369.138 438.194a.622.622 0 0 1-.167.015.706.706 0 0 1-.319-.076 25.407 25.407 0 0 0-.152 2.807c0 2 .03 2.625.046 2.655a.761.761 0 0 1 .091.364.614.614 0 0 1-.577.652.771.771 0 0 1-.759-.834.779.779 0 0 1 .091-.379c-.076-.88-.106-1.9-.106-2.777a53.849 53.849 0 0 1 .7-7.632c-.288-.167-.41-.349-.41-.531 0-.455.713-.9 1.35-.9a3.312 3.312 0 0 1 3.171 2.959c.003 1.431-2.671 3.616-2.959 3.677zm.273-5.326c-.273 1.335-.455 2.655-.622 4.006.652-.364 1.972-1.548 1.972-2.489a1.859 1.859 0 0 0-1.35-1.517z" class="cls-2" transform="translate(-312.121 -430.258)"/>
                <path id="Path_1381" d="M390.674 437.617a1.511 1.511 0 0 1-.546.106c-1.9 0-1.942-4.233-1.942-5.644v-.179c0-.47.273-.683.561-.683a.748.748 0 0 1 .728.773c0 .182-.015.41-.015.653 0 1.472.152 3.733.637 3.733a.29.29 0 0 0 .182-.106c.622-.652.759-3.444.774-3.809.015-.516.3-.743.607-.743a.791.791 0 0 1 .759.8c0 .638-.758 4.735-1.745 5.099z" class="cls-2" transform="translate(-326.679 -430.015)"/>
                <path id="Path_1382" d="M409.836 438.194a.622.622 0 0 1-.167.015.705.705 0 0 1-.319-.076 25.389 25.389 0 0 0-.152 2.807c0 2 .03 2.625.045 2.655a.76.76 0 0 1 .091.364.614.614 0 0 1-.577.652.771.771 0 0 1-.759-.834.783.783 0 0 1 .091-.379c-.076-.88-.106-1.9-.106-2.777a53.851 53.851 0 0 1 .7-7.632c-.289-.167-.41-.349-.41-.531 0-.455.713-.9 1.35-.9a3.311 3.311 0 0 1 3.171 2.959c.001 1.431-2.669 3.616-2.958 3.677zm.273-5.326c-.273 1.335-.455 2.655-.622 4.006.652-.364 1.972-1.548 1.972-2.489a1.86 1.86 0 0 0-1.35-1.517z" class="cls-2" transform="translate(-340.47 -430.258)"/>
                <path id="Path_1383" d="M430.682 436.261c-.41 0-.728-.243-.728-.577a.605.605 0 0 1 .137-.364c.182-.273 2.124-.865 2.109-1.214-.212-.425-3.414-.607-3.414-2.761 0-1.593 1.5-2.9 2.7-3.839a1.126 1.126 0 0 1 .743-.243c.607 0 1.26.364 1.26.774a.481.481 0 0 1-.547.486 1.191 1.191 0 0 1-.531-.122c-.455.015-.91.577-1.563 1.184a2.528 2.528 0 0 0-.85 1.73c0 1.5 3.55 1.062 3.55 2.868.001.773-2.275 2.078-2.866 2.078z" class="cls-2" transform="translate(-354.958 -427.263)"/>
                <path id="Path_1384" d="M473.728 432.473c-.212 0-.364-.121-.561-.121a.579.579 0 0 0-.273.091 10.322 10.322 0 0 0-2.9 3.217c-.486.728-.288 1.821-.546 2.139a.6.6 0 0 1-.5.243.713.713 0 0 1-.774-.728 3.4 3.4 0 0 1 .046-.516 15.125 15.125 0 0 0 .258-2.58 6.7 6.7 0 0 0-.334-2.245.546.546 0 0 1-.03-.167c0-.3.349-.531.7-.531.8 0 .849 1.016.849 1.73 0 .5.016.774.016 1.108a13.525 13.525 0 0 1 2.64-2.625 1.9 1.9 0 0 1 .971-.273c.47 0 1.062.137 1.062.743a.591.591 0 0 1-.624.515z" class="cls-2" transform="translate(-382.353 -430.015)"/>
                <path id="Path_1385" d="M495.181 436.041a7.2 7.2 0 0 0-.668.516c-.865.652-2.413 1.775-3.672 1.775-1.365 0-2.428-1.578-2.428-2.928 0-2.018 2.261-3.49 4.249-3.49a3.068 3.068 0 0 1 1.517.349c.091.06.152.106.152.167a3.756 3.756 0 0 1-2.155 2.185 7.467 7.467 0 0 1-2.488.592v.2c0 .728.516 1.76 1.35 1.76 1.017 0 3.1-1.669 3.277-1.882.152-.273.349-.622.668-.622a.7.7 0 0 1 .637.652.959.959 0 0 1-.439.726zm-2.594-2.974c0-.015 0-.03-.061-.03a3.047 3.047 0 0 0-1.259.319 4.033 4.033 0 0 0-1.077.743 7.4 7.4 0 0 0 1.381-.364 3.951 3.951 0 0 0 .986-.622c.014-.013.03-.031.03-.046z" class="cls-2" transform="translate(-396.493 -430.503)"/>
                <path id="Path_1386" d="M517.46 436.261c-.41 0-.728-.243-.728-.577a.6.6 0 0 1 .137-.364c.182-.273 2.124-.865 2.109-1.214-.212-.425-3.414-.607-3.414-2.761 0-1.593 1.5-2.9 2.7-3.839a1.126 1.126 0 0 1 .743-.243c.607 0 1.259.364 1.259.774a.48.48 0 0 1-.546.486 1.19 1.19 0 0 1-.531-.122c-.455.015-.91.577-1.563 1.184a2.529 2.529 0 0 0-.85 1.73c0 1.5 3.551 1.062 3.551 2.868 0 .773-2.275 2.078-2.867 2.078z" class="cls-2" transform="translate(-415.404 -427.263)"/>
                <path id="Path_1387" d="M543.13 435.919c-.41.333-3.733 2.716-6.084 2.716a1.827 1.827 0 0 1-2.033-1.715c0-1.684 2.276-4.506 3.945-4.506.5 0 .713.228.713.5 0 .349-.486.971-.9.971-.152 0-.3-.046-.41-.046-.774 0-2.094 2.124-2.094 2.943 0 .455.243.774.88.774a6.948 6.948 0 0 0 2.731-.865c.865-.409 2.443-1.38 2.564-1.426a.522.522 0 0 1 .212-.03.551.551 0 0 1 .516.561c.006.092-.024.104-.04.123z" class="cls-2" transform="translate(-428.952 -430.851)"/>
                <path id="Path_1388" d="M565.6 437.617a1.511 1.511 0 0 1-.546.106c-1.9 0-1.942-4.233-1.942-5.644v-.179c0-.47.273-.683.561-.683a.748.748 0 0 1 .728.773c0 .182-.015.41-.015.653 0 1.472.152 3.733.637 3.733a.29.29 0 0 0 .182-.106c.622-.652.759-3.444.774-3.809.015-.516.3-.743.607-.743a.791.791 0 0 1 .759.8c.001.638-.758 4.735-1.745 5.099z" class="cls-2" transform="translate(-448.525 -430.015)"/>
                <path id="Path_1389" d="M588.879 436.041a7.2 7.2 0 0 0-.668.516c-.865.652-2.412 1.775-3.672 1.775-1.365 0-2.428-1.578-2.428-2.928 0-2.018 2.261-3.49 4.249-3.49a3.066 3.066 0 0 1 1.517.349c.091.06.152.106.152.167a3.756 3.756 0 0 1-2.154 2.185 7.469 7.469 0 0 1-2.489.592v.2c0 .728.516 1.76 1.35 1.76 1.017 0 3.1-1.669 3.277-1.882.152-.273.349-.622.668-.622a.7.7 0 0 1 .637.652.959.959 0 0 1-.439.726zm-2.594-2.974c0-.015 0-.03-.061-.03a3.046 3.046 0 0 0-1.26.319 4.033 4.033 0 0 0-1.077.743 7.4 7.4 0 0 0 1.381-.364 3.955 3.955 0 0 0 .986-.622c.015-.013.031-.031.031-.046z" class="cls-2" transform="translate(-461.759 -430.503)"/>
            </g>
            <g id="Group_845" transform="translate(162.04 137.434)">
                <g id="Group_843">
                    <path id="Path_1390" d="M355.749 178.73s-4.435.533-3.629 10.147c.862 10.285 4.682 9.917 5.2 9.932.6.018 3.956-.183 5.15-2.195.841-1.416 1.84-9.61-1.2-14.227-2.421-3.674-4.694-3.987-5.521-3.657z" class="cls-2" transform="translate(-294.373 -166.13)"/>
                    <path id="Path_1391" d="M398.606 138.459a4.387 4.387 0 0 0-6.729 1.357 7.744 7.744 0 0 0-.625 1.84c-.863 4.05-.937 13.238 1.556 16.25a5.005 5.005 0 0 0 6.19 1.3c.5-.212 4.188-1.579 3.879-8.837-.239-5.579-1.801-9.869-4.271-11.91z" class="cls-2" transform="translate(-321.319 -137.434)"/>
                    <path id="Path_1392" d="M442.806 144.369a2.752 2.752 0 0 0-2.656.154c-1.82 1.137-5.073 4.249-5.651 12.125-.576 7.851 4.16 7.632 6.948 6.848a4.242 4.242 0 0 0 2.714-2.361c.843-1.885 2.072-4.96 2.029-6.77-.057-2.465.297-8.22-3.384-9.996z" class="cls-2" transform="translate(-351.79 -142.076)"/>
                    <path id="Path_1393" d="M477.311 185.366s-4.972 1.022-5.384 7.693.056 9.244 1.86 10.4c1.129.723 5.108 1.014 6.478-1.94 1.3-2.81 2.53-6.7 2.139-9.815-.479-3.822-2.874-6.849-5.093-6.338z" class="cls-2" transform="translate(-377.796 -170.782)"/>
                    <g id="Group_841" transform="translate(38.888 27.141)">
                        <path id="Path_1394" d="M309.062 242.658l.036-.229.071-.221a11.94 11.94 0 0 1 1.036-2.185q-.1-1.353-.217-2.705a7.43 7.43 0 0 1-.605-.614 11.9 11.9 0 0 1-2.31-4.506l-3.668.112-2.775 9.338-2.8-9.876-6.605.352-1.025 21.741 5.549.352.538-12.568 1.553 8.1h5.218l1.926-7.371v12.4l5.921.373q-.03-1.866-.091-3.733a12.317 12.317 0 0 1-1.752-8.76z" class="cls-2" transform="translate(-290.195 -230.287)"/>
                        <path id="Path_1395" d="M515.482 243.289a5.1 5.1 0 0 0-1.7-3.772 12.653 12.653 0 0 0-3.561-1.927 26.027 26.027 0 0 1-3.934-1.8q-1.471-.933-1.47-1.783a1.622 1.622 0 0 1 1.118-1.43 4.21 4.21 0 0 1 1.863-.456 13.691 13.691 0 0 1 5.342 1.491l1.967-5.88a40.27 40.27 0 0 0-7.578-.849 15.276 15.276 0 0 0-4.544.636 30.081 30.081 0 0 1-1.649 4.377 6.9 6.9 0 0 1-3.1 3.234 8.606 8.606 0 0 0 .312.813q.115.262.244.513a11.966 11.966 0 0 1 .922 1.22c.18.273.343.551.493.832a11.57 11.57 0 0 0 5.878 3.288q3.83.972 3.83 2.441a1.919 1.919 0 0 1-1.035 1.634 3.477 3.477 0 0 1-1.946.6 12.505 12.505 0 0 1-5.608-1.926 12.52 12.52 0 0 1-1.952 5.774 28.161 28.161 0 0 0 7.788 1.391 7.207 7.207 0 0 0 4.721-1.347q3.785-3.157 3.599-7.074z" class="cls-2" transform="translate(-435.105 -226.878)"/>
                    </g>
                    <path id="Path_1396" d="M169.246 241.142l-1.884 8.1-5.321-.827 6.667-23.667h5.259l7.081 22.527-5.839 1.491-1.781-7.62zm3.251-3.955l-1.18-4.99-1.18 5.094z" class="cls-2" transform="translate(-162.04 -198.25)"/>
                    <path id="Path_1397" d="M240.712 227.279q-.415 5.881-.414 10.643a75 75 0 0 0 .414 8.385l7.951-.994-.166 6.129-13.251.331-.828-24.846z" class="cls-2" transform="translate(-212.455 -199.771)"/>
                    <g id="Group_842" transform="translate(60.596 22.572)">
                        <path id="Path_1398" d="M397.18 224.282c-4.694-2.863-3.58-5.167-6.8-9.413-2.826-3.73-5.325-2.826-9.336-3.042s-7.392 4.62-7.7 5.135c-1.413 2.388-.841 3.582-5.436 5.7a11.712 11.712 0 0 0-6.04 6.391 8.812 8.812 0 0 0 3.343 8.811c1.592 1.166 6.391 1.033 10.409.719a5.863 5.863 0 0 1-.981-.984q-2.361-3-2.195-8.054a18.277 18.277 0 0 1 2.567-9.193q2.878-4.679 7.785-4.679 5.114 0 7.392 2.588 1.843 2.112 2.92 7.62a21.359 21.359 0 0 1 .414 4.058 11.368 11.368 0 0 1-1.988 6.833 8.827 8.827 0 0 1-2.69 2.474 63.952 63.952 0 0 0 7.774 1.438c3.758.315 6.358-3.007 6.717-7.2.314-3.589-1.315-6.249-6.155-9.202z" class="cls-2" transform="translate(-361.734 -211.82)"/>
                        <path id="Path_1399" d="M421.028 246.628q-1.739 0-3.209 2.319a7.615 7.615 0 0 0-1.325 4.079 7.267 7.267 0 0 0 1.2 3.83q1.346 2.195 3.106 2.195 1.843 0 3.582-2.236a6.692 6.692 0 0 0 1.635-4.038 7.332 7.332 0 0 0-1.946-4.617 4.613 4.613 0 0 0-3.043-1.532z" class="cls-2" transform="translate(-399.877 -236.066)"/>
                    </g>
                    <path id="Path_1400" d="M561.033 236.8l-.331-5.57q11.387-1.118 21.016-1.76l-.145 5.425-7.081.31.331 19.3-5.446-.642-.331-18.324z" class="cls-2" transform="translate(-439.73 -201.543)"/>
                </g>
                <g id="Group_844" transform="translate(18.549 52.992)">
                    <path id="Path_1401" d="M223.5 325.472l-.331-5.57q11.387-1.118 21.016-1.76l-.145 5.425-7.081.31.331 19.3-5.446-.642-.331-18.324z" class="cls-2" transform="translate(-223.168 -316.299)"/>
                    <path id="Path_1402" d="M314.842 317.4v9.317h4.286l.207-8.634 5.777.538-.725 22.8h-5.8l.207-9.359h-3.955l-.124 9.359h-5.653l-.662-24.37z" class="cls-2" transform="translate(-282.539 -315.539)"/>
                    <path id="Path_1403" d="M395.11 315.462l.021 6.667-9.525-.166v3.478h8.1l-.166 5.3-7.93-.166v3.313h8.717l-.145 6.46-14.287-.207.539-24.867z" class="cls-2" transform="translate(-332.335 -314.303)"/>
                    <path id="Path_1404" d="M448.471 312.069q8.013 0 11.8 4.493a5.654 5.654 0 0 1 1.47 3.706q0 3.665-5.073 8.075l8.862 10.518-7.454-.083-5.549-6.626v6.522l-6.129-.394.352-26.171q.873-.04 1.721-.04zm7.889 8.51q0-2.319-3.831-2.9v6.626q3.831-1.842 3.831-3.726z" class="cls-2" transform="translate(-378.662 -312.069)"/>
                    <path id="Path_1405" d="M533.83 315.462l.021 6.667-9.524-.166v3.478h8.1l-.166 5.3-7.93-.166v3.313h8.717l-.145 6.46-14.287-.207.539-24.867z" class="cls-2" transform="translate(-428.961 -314.303)"/>
                </g>
            </g>
        </g>
    </g>
</svg>
