<svg xmlns="http://www.w3.org/2000/svg" width="23.845" height="23.887"><path fill="none" stroke="#fff" stroke-linecap="round" stroke-linejoin="round" stroke-width="3" d="M22.344 17.136v3.144a2.1 2.1 0 01-2.285 2.1 20.74 20.74 0 01-9.044-3.217 20.436 20.436 0 01-6.288-6.288 20.74 20.74 0 01-3.218-9.09A2.1 2.1 0 013.595 1.5h3.144a2.1 2.1 0 012.1 1.8 13.456 13.456 0 00.734 2.945 2.1 2.1 0 01-.472 2.211L7.766 9.79a16.768 16.768 0 006.288 6.288l1.331-1.331a2.1 2.1 0 012.211-.472 13.456 13.456 0 002.945.734 2.1 2.1 0 011.803 2.127z"/></svg>